<?xml version="1.0" encoding="UTF-8"?>
<!DOCTYPE svg PUBLIC "-//W3C//DTD SVG 1.1//EN" "http://www.w3.org/Graphics/SVG/1.1/DTD/svg11.dtd">
<!-- Creator: CorelDRAW -->
<svg xmlns="http://www.w3.org/2000/svg" xml:space="preserve" width="119.71mm" height="98.6969mm" version="1.1" style="shape-rendering:geometricPrecision; text-rendering:geometricPrecision; image-rendering:optimizeQuality; fill-rule:evenodd; clip-rule:evenodd"
viewBox="0 0 5587.35 4606.6"
 xmlns:xlink="http://www.w3.org/1999/xlink"
 xmlns:xodm="http://www.corel.com/coreldraw/odm/2003">
 <defs>
  <style type="text/css">
   <![CDATA[
    .fil0 {fill:#FEFEFE}
   ]]>
  </style>
 </defs>
 <g id="Camada_x0020_1">
  <metadata id="CorelCorpID_0Corel-Layer"/>
  <path class="fil0" d="M1884.39 2365.78c0,95.73 -5.18,140.31 82.74,226.03 59.84,58.34 171.13,89 244.8,52.11 71.87,-35.99 141.69,-278.14 537.02,-278.14 78.93,0 135.86,9.13 135.86,74.1 0,81.65 -105.85,37.05 -160.56,37.05 -211.67,0 -393.55,157 -446.58,343.87 -44.02,155.12 22.33,256.46 -36.11,280.49l0 248.94c81.08,-5.53 121.67,66.18 206.58,106.8 62.13,29.73 202.7,71.48 287.77,69.19 96.79,-2.61 208.33,-40.61 289.63,-68.7 193.08,-66.71 327.9,-170.13 476.59,-266.54l0 -537.49c-43.68,13.49 -92.88,21.05 -147.99,21.05 -40.23,0 -49.4,-29.36 -49.4,-61.75 0,-86.83 111.92,-13.62 247.53,-110.64 117.31,-83.92 157.22,-231.04 83.15,-381.66 -28.67,-58.3 -14.4,-76.49 27.49,-112.9 182.86,42.6 191.08,534.73 -158.2,645.04l0 536.67c197.64,-127.92 420.49,-243.04 837.5,-243.04l543.09 12.7c147.24,7.81 302.64,68.55 416.95,-65.43 86.61,-101.51 117.78,-258.14 60.37,-387.2 -73.1,-164.32 -254.66,-158.03 -254.66,-239.38 0,-26.71 20.49,-46.5 43.3,-53.05 21.35,-6.14 50.75,6.2 78.48,17.07 65.33,25.62 85.81,50.72 137.59,85.39 257.04,-59.88 343.65,-613.33 -44.16,-746.29 -211.27,-72.43 -147.58,-14.57 -129.18,-193.39 20.99,-204.03 -53.67,-388.74 -222.31,-492.6 -275.25,-169.53 -505.96,37.14 -505.96,-111.58 0,-108.14 326.89,-74.1 358.17,-74.1 -24.87,-106.78 -46.49,-163.39 -113.88,-231.94 -210.67,-214.31 -575.84,-105.37 -639.53,133.14 -220.84,0 -12.03,-186.08 37.05,-259.37 -149.82,-12.47 -189.96,-64.18 -370.86,24.37 -254.28,124.46 -221.06,319.03 -259.03,482.02 -162.27,37.81 -220.05,53.09 -324.32,157.37 -361.3,361.3 -9.15,746.44 -9.15,768.95 0,47.66 -24.51,79.6 -66.69,67.84 -58.79,-16.4 -8.9,0.2 -30.75,-18.7 -66.43,-57.44 -119.92,-166.31 -144.86,-251.47 -45.78,-156.3 -16.8,-220.62 -4.72,-365.81 -84.93,-19.79 -136.39,-61.75 -259.37,-61.75 -235.36,0 -387.6,168.26 -435.47,367.34 -20.49,85.23 23.23,213.16 -70.92,213.16 -99.15,0 -12.13,-182.11 -69.79,-251.34 -167.05,-200.53 -658.91,-79.64 -658.91,300.74 0,57.26 76.65,209.97 -37.05,209.97 -114.36,0 -139.14,-503.77 224.33,-677.29 288,-137.5 452.45,35.99 541.43,59.75 33.28,-62.9 75.2,-134.71 126.19,-182.58 146.63,-137.67 372.85,-198.04 570.46,-131.18 43.88,14.85 80.74,33.25 118.52,42.04 92.52,-174.84 228.42,-298.33 432.28,-345.82 0,-96.49 30.36,-189.42 65.59,-255.53l102.53 -132.13c24.8,-24.98 21.35,-14.01 41.84,-44.62 -150.31,-79.54 -310.75,-121.61 -481.55,-24.57 -234.88,133.45 -188.29,358.04 -284.2,358.04 -136.32,0 32.52,-278.58 63.41,-319.47 21.89,-28.98 42.43,-49.36 60.1,-75.76 -40.37,-60.29 -134.3,-141.23 -205.48,-177.4 -203.54,-103.44 -415.88,-100.24 -614,0.17 -57.73,29.26 -72.26,44.35 -117.66,79.96 -40.06,31.42 -73.34,54.8 -87.99,109.63 108.83,72.87 208.84,210.89 197.62,345.83 -106.1,24.72 -87.95,-9.33 -139.71,-107.31 -25.33,-47.97 -49,-76.58 -85.33,-112.28 -156.04,-153.39 -401.4,-162.53 -567.56,-29.57 -62.31,49.86 -143.72,143.69 -146.07,249.16 104.2,2.32 240.51,107.86 284.07,172.91 -8.19,35.16 -23.26,51.39 -49.4,74.11 -62.35,-14.53 -62.72,-38.81 -113.21,-72.06 -133.22,-87.72 -291.96,-105.72 -437.77,-46.64 -205.09,83.1 -276.53,252.75 -276.53,476.87l148.21 -12.35c55.67,0 57.45,84.6 6.82,105.01 -76.25,30.74 -315.59,2.59 -315.59,327.27 0,183.08 209.97,231.7 209.97,284.07 0,131.94 -203.68,20.42 -222.32,-49.4 -135.13,11.24 -234.67,222.03 -234.67,407.58 0,142.86 126.46,329.28 234.67,358.17 21.87,-45.57 20.87,-55.98 49.06,-99.15 28.64,-43.84 44.81,-73.76 99.15,-73.76 83.16,0 32.82,93.48 10.68,121.66 -57.34,73 -71.91,173.53 -52.51,266.26l140.38 0 0 -554.11c0,-55.5 22.63,-105.87 59.09,-142.33 36.45,-36.46 86.83,-59.09 142.33,-59.09l375.53 0c55.49,0 105.88,22.63 142.33,59.09 36.46,36.46 59.09,86.83 59.09,142.33l0 554.11 554.11 0c55.48,0 105.87,22.63 142.33,59.09 2.9,2.9 5.72,5.89 8.45,8.98 5.81,-64.77 18.97,-126.45 23.81,-147.22 -255.08,0 -407.58,-172.45 -407.58,-370.53 0,-73.93 56.62,-247.02 123.51,-247.02 48.26,0 5.48,-5.16 32.98,16.42l28.78 32.98c-13.72,58.87 -61.75,106.19 -61.75,160.56zm-1330.29 580.85c20.2,39.44 47.39,74.27 80.65,100.65 83,65.83 140.86,71.91 286.27,71.91 -20.42,-87.63 -209.44,-296.19 -49.4,-333.47 58.01,38.85 70,119.94 102.78,181.29 24.19,45.27 86.75,129.83 124.45,159.63 228.37,180.45 308.99,173.25 550.88,153.12 -11.28,-48.4 -97.1,-259.37 24.7,-259.37 62.41,0 52.53,102.09 69.52,165.15 41.56,154.29 160.27,288.75 332.09,312.74 15.67,-18.66 25.13,-42.68 25.13,-68.81l0 -375.53c0,-59.01 -48.28,-107.3 -107.29,-107.3l-648.23 0 0 -648.23c0,-59.01 -48.29,-107.29 -107.3,-107.29l-375.53 0c-59.01,0 -107.3,48.28 -107.3,107.29l0 648.23 -201.42 0zm1627.9 554.75c164.89,-5.17 23.51,-39.2 23.51,-85.77 0,-33.36 5.9,-34.05 12.35,-61.75 7.35,-1.71 14.37,-2.82 21.11,-3.41l0 -248.15c-8.53,3 -19.46,4.55 -33.46,4.55 -3.59,0 -6.99,-0.34 -10.22,-0.95l0 323.57c0,25.32 -4.71,49.57 -13.3,71.92zm1283.31 -147.52c215.86,407.94 863.83,617.27 1256.31,280.58l235.77 -282.98c48.28,-88.71 63.73,-149.18 88.85,-256.97l-439.42 -42.27c-120.6,-18.22 -328.6,6.5 -442.95,24.46 -285.92,44.91 -503.85,146.8 -698.55,277.17zm-469.33 234.67l0 24.7c314.29,73.22 716.35,612.69 716.35,975.72 318.45,26.5 342.09,53.9 415.6,-164.9 62.79,-186.9 53.74,-311.67 53.74,-502.06 -296.74,0 -679.15,-249.34 -815.16,-506.39 -47.91,32.08 -119.27,72.97 -172.64,99.08 -54,26.42 -133.35,58.79 -197.89,73.83zm1556.22 -2396.08c5.93,1.38 11.53,3.18 16.85,5.31l0 -371.02 2.59 0 0 372.04c121.66,52.09 82.88,295.34 34.51,393.44 -32.46,65.83 -57.95,81.96 -91,131.32 71.09,106.17 98.81,145.03 98.81,296.42 0,244.08 -247.52,435.4 -419.93,395.23 -18.96,-79.21 -17.46,-23.88 0,-98.81 101.42,-23.63 147.66,-29.22 213.61,-95.16 142.8,-142.8 105.34,-291.62 8.71,-435.92 -102.31,54.13 -269.34,67.58 -363.18,16.98 -73.71,-39.75 -21.77,-115.79 5,-115.79 22.71,0 342.86,118.75 452.49,-165.06 83.64,-216.55 -69.31,-232.62 41.55,-328.98z"/>
  <path class="fil0" d="M862.82 2191.11l375.53 0c59.01,0 107.29,48.28 107.29,107.29l0 648.23 648.23 0c59.01,0 107.29,48.28 107.29,107.29l0 375.53c0,59.01 -48.28,107.29 -107.29,107.29l-648.23 0 0 648.23c0,59.01 -48.28,107.29 -107.29,107.29l-375.53 0c-59.01,0 -107.29,-48.28 -107.29,-107.29l0 -648.23 -648.23 0c-59.01,0 -107.29,-48.28 -107.29,-107.29l0 -375.53c0,-59.01 48.28,-107.29 107.29,-107.29l648.23 0 0 -648.23c0,-59.01 48.28,-107.29 107.29,-107.29z"/>
 </g>
</svg>
